<?xml version="1.0" encoding="UTF-8"?>
<!DOCTYPE svg PUBLIC "-//W3C//DTD SVG 1.1//EN" "http://www.w3.org/Graphics/SVG/1.1/DTD/svg11.dtd">
<svg version="1.1" xmlns="http://www.w3.org/2000/svg" xmlns:xlink="http://www.w3.org/1999/xlink" x="0" y="0" width="2388" height="1668" viewBox="0, 0, 1194, 834">
  <g id="Layer_1">
    <path d="M646.794,348.935 L647.282,348.958 L648.931,349.071 L650.721,349.313 L652.488,349.519 L655.087,349.98 L658.743,350.9 L662.646,352.126 L666.712,353.61 L670.927,355.33 L675.255,357.263 L679.657,359.388 L684.047,361.731 L688.407,364.225 L692.691,366.846 L696.853,369.566 L700.842,372.364 L704.619,375.21 L708.127,378.091 L711.329,380.983 L714.169,383.879 L716.609,386.771 L718.584,389.667 L720.032,392.588 L720.835,395.566 L720.899,397.984 L720.567,399.668 L719.935,401.166 L718.991,402.577 L717.743,403.858 L716.231,404.98 L715.638,405.305 L715.911,405.367 L719.816,406.492 L723.453,407.753 L726.816,409.165 L729.92,410.698 L732.763,412.352 L735.348,414.122 L737.687,415.99 L739.78,417.956 L741.63,420.009 L743.242,422.146 L744.618,424.358 L745.759,426.64 L746.669,428.986 L747.346,431.391 L747.794,433.847 L748.005,436.35 L747.991,438.884 L747.541,442.622 L746.111,447.634 L744.373,451.506 L742.912,454.029 L741.301,456.333 L739.527,458.518 L737.599,460.565 L735.545,462.47 L733.374,464.227 L731.103,465.835 L728.738,467.295 L726.291,468.618 L723.761,469.804 L721.15,470.871 L718.457,471.823 L715.68,472.649 L712.815,473.35 L709.865,473.922 L706.829,474.353 L703.715,474.615 L700.528,474.701 L697.278,474.593 L693.97,474.284 L690.608,473.772 L687.182,473.086 L683.691,472.22 L680.148,471.15 L676.548,469.883 L672.905,468.39 L669.217,466.681 L665.495,464.732 L661.742,462.54 L657.966,460.093 L654.179,457.373 L650.396,454.364 L646.664,451.007 L644.881,449.124 C644.847,449.094 644.856,449.026 644.9,448.973 C644.946,448.92 645.01,448.901 645.044,448.932 L647.1,450.479 L651.034,453.56 L654.894,456.438 L658.718,459.069 L662.508,461.451 L666.269,463.58 L669.999,465.46 L673.691,467.1 L677.348,468.493 L680.955,469.663 L684.518,470.595 L688.023,471.311 L691.472,471.802 L694.856,472.075 L698.155,472.175 L701.363,472.114 L704.475,471.901 L707.491,471.53 L710.408,471.01 L713.222,470.327 L715.926,469.485 L718.509,468.493 L720.959,467.367 L723.267,466.11 L725.419,464.742 L727.408,463.295 L729.225,461.783 L730.87,460.232 L732.341,458.656 L733.644,457.072 L734.78,455.485 L735.767,453.91 L736.605,452.337 L737.269,450.884 L738.093,448.636 L738.859,445.277 L739.099,442.639 L739.072,440.904 L738.88,439.141 L738.525,437.346 L737.989,435.533 L737.267,433.707 L736.348,431.877 L735.224,430.052 L733.89,428.24 L732.336,426.451 L730.556,424.692 L728.547,422.969 L726.297,421.295 L723.808,419.668 L721.074,418.096 L718.083,416.594 L714.842,415.15 L711.334,413.787 L707.563,412.493 L703.519,411.287 L699.204,410.151 L694.6,409.118 L689.701,408.199 L684.484,407.437 L678.983,406.747 L673.211,406.042 L673.109,406.016 L673.818,411.699 L674.978,420.847 L676.007,426.606 L677.166,432.089 L678.297,437.343 L678.811,439.886 C679.02,440.72 678.527,441.854 677.71,442.419 C676.894,442.985 676.063,442.767 675.854,441.933 L675.112,439.465 L673.87,434.203 L672.79,428.619 L671.664,422.892 L669.635,414.309 L666.744,402.856 L664.426,394.503 L663.293,390.843 L663.025,390.733 L662.524,390.609 L661.977,390.543 L661.382,390.523 L660.418,390.552 L659.083,390.633 L658.08,390.664 L657.42,390.639 L656.792,390.557 L656.202,390.398 L655.78,390.208 L655.514,390.039 L655.276,389.84 L655.061,389.605 L654.952,389.458 C654.947,389.452 654.942,389.445 654.937,389.438 L654.667,389.022 L654.178,388.19 L653.765,387.372 L653.428,386.573 L653.161,385.789 L652.96,385.02 L652.821,384.261 L652.741,383.512 L652.713,382.773 L652.733,382.045 L652.798,381.328 L652.9,380.624 L653.105,379.615 L653.446,378.315 L653.819,377.069 L654.171,375.883 L654.469,374.735 L654.646,373.887 L654.741,373.315 L654.812,372.709 L654.854,372.075 L654.86,371.409 L654.837,370.925 L654.549,370.448 L653.443,368.79 L652.312,367.262 L651.165,365.855 L650.032,364.411 L649.418,363.625 C647.899,361.16 648.529,362.724 648.797,358.832 C644.777,358.843 642.846,356.93 641.523,354.257 C640.9,351.518 643.26,349.135 646.794,348.935 z M663.208,363.29 L663.737,364.335 L664.772,366.677 L665.727,369.126 L667.009,372.961 L668.5,378.392 L669.78,384.129 L670.879,390.081 L672.266,399.262 L672.539,401.449 L673.849,401.553 L678.268,401.693 L682.363,401.703 L686.136,401.654 L689.594,401.568 L692.743,401.421 L695.59,401.233 L698.133,400.977 L700.382,400.688 L702.335,400.35 L703.993,399.973 L705.369,399.583 L706.465,399.182 L707.304,398.796 L707.916,398.44 L708.345,398.126 L708.64,397.846 L708.852,397.58 L709.003,397.29 L709.094,397.084 L709.151,396.487 L708.81,395.143 L707.92,393.444 L706.469,391.475 L704.501,389.306 L702.061,387.001 L699.217,384.601 L696.022,382.151 L692.542,379.681 L688.834,377.228 L684.961,374.813 L680.982,372.468 L676.959,370.218 L672.95,368.089 L669.048,366.065 L665.273,364.227 L663.208,363.29 z M656.173,373.223 L656.171,373.267 L656.046,374.266 L655.788,375.529 L655.486,376.722 L655.191,377.851 L654.935,378.95 L654.79,379.772 L654.725,380.31 L654.688,380.856 L654.683,381.416 L654.715,381.993 L654.792,382.592 L654.919,383.216 L655.101,383.868 L655.346,384.547 L655.66,385.257 L656.048,385.996 L656.52,386.774 L656.794,387.184 L656.78,387.163 L656.825,387.228 L656.951,387.372 L657.097,387.498 L657.253,387.604 L657.532,387.738 L657.986,387.869 L658.508,387.943 L659.084,387.968 L660.045,387.945 L661.421,387.87 L662.319,387.854 L661.041,384.165 L659.179,379.455 L657.696,376.172 L656.678,374.142 L656.173,373.223 z" fill="#FFFFFF"/>
    <path d="M468.353,206.157 L468.355,206.16 L468.674,207.802 L469.351,211.306 L470.078,215.091 L470.851,219.15 L471.671,223.47 L472.533,228.042 L473.44,232.854 L474.384,237.898 L475.373,243.159 L476.399,248.629 L477.463,254.296 L478.566,260.148 L480.281,269.256 L482.822,281.84 L485.524,294.946 L488.356,308.504 L491.265,322.464 L494.208,336.767 L498.603,358.721 L504.007,388.78 L504.052,389.078 L504.434,388.607 L505.6,387.191 L507.011,385.489 L508.656,383.513 L510.532,381.283 L512.622,378.811 L514.906,376.113 L517.372,373.204 L520.016,370.113 L522.819,366.849 L525.758,363.429 L528.82,359.867 L532.002,356.196 L532.235,355.928 C538.328,356.376 535.37,356.196 541.109,356.48 L541.773,356.414 L542.721,356.308 L543.631,356.195 L544.506,356.074 L545.342,355.946 L546.145,355.81 L546.91,355.668 L547.641,355.519 L548.337,355.364 L549,355.203 L549.628,355.036 L550.223,354.864 L550.786,354.687 L551.588,354.406 L552.543,354.017 L553.359,353.621 L554.059,353.214 L554.649,352.8 L555.135,352.382 L555.524,351.965 L555.824,351.553 L556.042,351.149 L556.189,350.755 L556.272,350.374 L556.302,350.006 L556.285,349.651 L556.229,349.307 L556.139,348.969 L556.017,348.633 L555.867,348.293 L555.687,347.945 L555.485,347.583 L555.246,347.202 L554.975,346.799 L554.669,346.371 L554.322,345.918 L553.939,345.438 L553.237,344.619 L552.195,343.49 L551.063,342.345 L549.814,341.156 L548.472,339.948 L547.071,338.74 L545.645,337.553 L544.583,336.701 L543.883,336.146 L543.182,335.595 L542.496,335.059 L541.825,334.536 L541.175,334.031 L540.541,333.545 L539.931,333.074 L539.343,332.615 L538.778,332.167 L538.227,331.72 L537.687,331.267 L537.14,330.786 L536.564,330.245 L535.927,329.579 L535.212,328.68 L534.696,327.813 C534.629,327.676 534.571,327.541 534.523,327.408 L534.456,327.208 L534.282,326.553 L534.184,325.846 L534.198,325.192 L534.319,324.601 L534.537,324.076 L534.837,323.618 L535.208,323.223 L535.636,322.885 L536.112,322.596 L536.627,322.351 L537.174,322.14 L537.751,321.961 L538.356,321.81 L538.986,321.682 L539.638,321.576 L540.313,321.486 L541.008,321.413 L542.066,321.324 L543.544,321.237 L545.093,321.18 L546.683,321.143 L548.299,321.11 L550.918,321.274 L553.565,321.45 L555.287,321.529 L556.977,321.567 L558.614,321.56 L560.186,321.5 L561.669,321.368 L562.709,321.229 L563.365,321.117 L564.006,320.983 L564.618,320.83 L565.2,320.657 L565.749,320.463 L566.259,320.243 L566.732,319.999 L567.168,319.733 L567.566,319.443 L567.927,319.129 L568.248,318.791 L568.528,318.428 L568.768,318.038 L568.967,317.621 L569.122,317.174 L569.227,316.694 L569.286,316.181 L569.299,315.635 L569.262,315.052 L569.228,314.765 L569.229,314.772 L569.196,314.516 L569.142,313.981 L569.112,313.453 L569.11,312.943 L569.138,312.453 L569.195,311.981 L569.329,311.314 L569.597,310.473 L569.961,309.674 L570.405,308.913 L570.928,308.184 L571.521,307.475 L572.178,306.776 L572.885,306.069 L573.636,305.344 L574.431,304.594 L575.263,303.808 L576.117,302.967 L576.99,302.065 L577.883,301.095 L578.783,300.041 L579.68,298.893 L580.544,297.623 L581.399,296.243 L582.204,294.72 L582.771,293.482 L583.124,292.606 L583.462,291.687 L583.79,290.73 L584.088,289.724 L584.371,288.677 L584.633,287.584 L584.869,286.442 L585.085,285.254 L585.266,284.011 L585.427,282.721 L585.565,281.382 L585.658,279.98 L585.727,278.527 L585.773,277.022 L585.773,275.454 L585.74,273.828 L585.666,272.139 L585.55,270.387 L585.386,268.567 L585.285,267.639 C585.607,266.161 586.53,266.291 587.794,266.142 C590.044,266.642 589.084,266.311 590.718,266.997 C593.558,268.37 595.729,270.883 595.568,272.609 L595.307,273.406 L594.791,274.949 L594.281,276.444 L593.773,277.892 L593.268,279.294 L592.759,280.647 L592.262,281.96 L591.754,283.224 L591.238,284.439 L590.738,285.62 L590.232,286.757 L589.719,287.849 L589.216,288.908 L588.709,289.926 L588.207,290.908 L587.706,291.856 L587.2,292.765 L586.707,293.648 L586.21,294.494 L585.714,295.311 L584.984,296.485 L584.029,297.951 L583.096,299.318 L582.162,300.576 L581.261,301.754 L580.376,302.845 L579.511,303.859 L578.667,304.8 L577.856,305.68 L577.09,306.515 L576.365,307.304 L575.689,308.057 L575.073,308.787 L574.526,309.503 L574.047,310.209 L573.642,310.913 L573.315,311.624 L573.08,312.356 L572.932,313.123 L572.883,313.727 L572.881,314.136 L572.904,314.559 L572.953,314.996 L573.029,315.449 L573.141,315.935 L573.211,316.204 C573.212,316.206 573.212,316.209 573.213,316.211 L573.316,316.633 L573.462,317.41 L573.54,318.15 L573.552,318.853 L573.5,319.519 L573.393,320.152 L573.228,320.748 L573.005,321.309 L572.73,321.836 L572.405,322.329 L572.033,322.789 L571.616,323.219 L571.159,323.62 L570.663,323.993 L570.134,324.341 L569.577,324.669 L568.988,324.973 L568.371,325.256 L567.728,325.518 L567.048,325.764 L565.995,326.095 L564.542,326.477 L563.041,326.817 L561.498,327.112 L559.932,327.372 L558.352,327.609 L556.03,327.94 L553.752,328.21 L552.194,328.247 L550.72,328.3 L549.343,328.371 L548.066,328.464 L547.188,328.556 L546.661,328.628 L546.175,328.708 L545.729,328.795 L545.329,328.887 L544.976,328.985 L544.67,329.087 L544.412,329.191 L544.212,329.291 L544.63,329.583 L545.252,330.015 L545.931,330.477 L546.657,330.969 L547.427,331.492 L548.234,332.044 L549.086,332.632 L550.422,333.565 L552.281,334.875 L554.212,336.283 L556.191,337.787 L558.193,339.39 L560.185,341.096 L562.078,342.857 L563.42,344.222 L564.311,345.199 L565.158,346.202 L565.958,347.227 L566.7,348.271 L567.371,349.329 L567.97,350.395 L568.477,351.463 L568.887,352.523 L569.196,353.569 L569.398,354.593 L569.489,355.587 L569.466,356.546 L569.328,357.464 L569.077,358.339 L568.714,359.169 L568.241,359.953 L567.659,360.692 L566.97,361.387 L566.173,362.039 L565.269,362.65 L564.255,363.221 L563.132,363.753 L561.914,364.24 L560.929,364.581 L560.223,364.801 L559.487,365.012 L558.721,365.214 L557.925,365.406 L557.096,365.589 L556.238,365.762 L555.345,365.927 L554.422,366.082 L553.464,366.228 L552.475,366.364 L551.45,366.491 L550.391,366.608 L549.299,366.715 L548.169,366.813 L547.005,366.901 L545.805,366.979 L544.567,367.048 L543.291,367.106 L541.99,367.153 L541.344,367.173 C539.099,367.24 537.233,366.128 535.334,365.11 L534.818,365.811 L532,369.611 L529.294,373.26 L526.718,376.735 L524.278,380.016 L522.492,382.401 L524.513,381.879 L527.01,381.251 L530.404,380.448 L534.622,379.522 L538.941,378.642 L542.523,377.96 L545.189,377.457 L548.153,376.896 L551.477,376.283 L553.294,375.947 C553.309,375.945 553.323,375.942 553.337,375.939 L554.876,375.836 L557.958,375.7 L560.922,375.66 L563.722,375.73 L566.361,375.906 L568.842,376.197 L571.169,376.593 L573.342,377.104 L575.365,377.726 L577.242,378.458 L578.971,379.305 L580.552,380.269 L581.993,381.339 L583.289,382.522 L584.439,383.82 L585.443,385.23 L586.301,386.749 L587.014,388.372 L587.794,390.922 L588.392,394.626 L588.489,398.697 L588.103,403.011 L587.307,407.507 L586.135,412.155 L584.652,416.926 L582.882,421.806 L580.887,426.774 L578.681,431.824 L576.308,436.942 L572.513,444.695 L566.99,455.152 L561.088,465.576 L555.156,475.806 L550.833,483.263 L548.062,488.093 L545.408,492.791 L542.903,497.334 L541.718,499.543 C541.716,499.549 541.711,499.553 541.708,499.552 C541.704,499.552 541.703,499.547 541.706,499.542 L542.755,497.311 L544.959,492.708 L547.292,487.939 L549.724,483.029 L553.497,475.464 L558.6,465.139 L563.595,454.744 L568.382,444.485 L571.661,436.991 L573.587,432.169 L575.279,427.513 L576.725,423.055 L577.883,418.834 L578.758,414.876 L579.32,411.213 L579.575,407.861 L579.501,404.838 L579.116,402.127 L578.381,399.652 L577.569,397.99 L576.925,397.018 L576.182,396.118 L575.332,395.29 L574.372,394.539 L573.29,393.868 L572.082,393.282 L570.734,392.794 L569.247,392.402 L567.614,392.111 L565.827,391.933 L563.882,391.872 L561.776,391.93 L559.502,392.123 L557.057,392.446 L554.437,392.916 L551.639,393.532 L548.608,394.315 L546.957,394.771 L545.168,395.094 L541.834,395.692 L538.884,396.197 L536.256,396.646 L532.782,397.245 L528.685,397.952 L524.699,398.689 L521.471,399.329 L519.095,399.809 L516.456,400.361 L513.492,400.996 L510.146,401.709 L506.354,402.524 L506.082,402.582 L507.455,411.713 L509.474,427.001 L511.356,442.107 L513.122,456.92 L514.806,471.318 L516.428,485.19 L517.62,495.179 L518.41,501.613 L519.28,507.785 L520.131,513.763 L520.984,519.518 L521.805,525.067 L522.597,530.394 L523.358,535.491 L524.081,540.35 L524.773,544.955 L525.424,549.301 L526.037,553.376 L526.608,557.169 L527.134,560.67 L527.617,563.869 L528.052,566.756 L528.437,569.319 L528.772,571.55 L529.055,573.437 L529.285,574.969 L529.379,575.599 C529.38,575.602 529.378,575.607 529.375,575.609 C529.372,575.612 529.369,575.612 529.368,575.608 L529.274,574.978 L529.042,573.447 L528.75,571.568 L528.4,569.35 L527.994,566.802 L527.533,563.937 L527.021,560.762 L526.455,557.293 L525.84,553.535 L525.176,549.503 L524.464,545.206 L523.708,540.653 L522.904,535.86 L522.059,530.831 L521.171,525.581 L520.242,520.121 L519.277,514.457 L518.244,508.628 L517.169,502.623 L515.958,496.533 L514.044,487.132 L511.354,474.13 L508.552,460.644 L505.685,446.73 L502.812,432.434 L499.98,417.813 L496.029,395.299 L491.474,364.553 L488.446,341.484 L486.51,326.361 L484.624,311.565 L482.775,297.203 L480.934,283.393 L479.095,270.233 L477.649,260.904 L476.709,254.918 L475.785,249.136 L474.883,243.564 L474.005,238.212 L473.15,233.094 L472.324,228.216 L471.525,223.591 L470.759,219.227 L470.025,215.135 L469.326,211.327 L468.663,207.812 L468.343,206.169 C468.344,206.167 468.346,206.162 468.349,206.159 L468.353,206.157 z M511.432,397.242 L511.215,397.549 L511.37,397.367 L511.432,397.242 z" fill="#FFFFFF"/>
    <path d="M755.051,335.941 L755.773,337.228 L755.96,338.863 L756.299,342.619 L756.594,346.841 L756.852,351.463 L757.108,356.427 L757.38,361.683 L757.681,367.192 L758.042,372.888 L758.74,381.676 L760.075,393.544 L761.432,402.322 L762.567,407.984 L763.75,413.619 L764.715,419.468 L765.811,425.139 L767.157,430.469 L768.75,435.427 L770.591,439.979 L772.145,443.077 L773.263,444.986 L774.458,446.776 L775.724,448.431 L777.064,449.945 L778.478,451.314 L779.968,452.531 L781.539,453.588 L783.188,454.483 L784.918,455.212 L786.729,455.771 L788.623,456.154 L790.603,456.357 L792.673,456.373 L794.834,456.198 L797.088,455.827 L799.443,455.251 L801.901,454.466 L804.466,453.462 L807.145,452.231 L809.943,450.763 L812.865,449.05 L815.916,447.081 L819.1,444.846 L820.745,443.617 C820.75,443.614 820.753,443.615 820.753,443.619 C820.752,443.624 820.748,443.631 820.743,443.634 L819.059,445.089 L815.755,447.819 L812.538,450.292 L809.411,452.508 L806.374,454.472 L803.427,456.185 L800.573,457.653 L797.812,458.879 L795.145,459.866 L792.572,460.624 L790.094,461.156 L787.71,461.47 L785.417,461.575 L783.216,461.477 L781.104,461.183 L779.08,460.702 L777.139,460.043 L775.281,459.212 L773.498,458.224 L771.792,457.08 L770.16,455.788 L768.598,454.357 L767.105,452.792 L765.672,451.09 L763.645,448.323 L761.148,444.283 L758.873,439.859 L756.789,435.12 L754.86,430.138 L753.171,424.854 L752.04,418.975 L751.168,412.848 L750.017,403.65 L748.775,391.542 L747.973,382.789 L747.478,377.195 L747,371.857 L746.539,366.812 L746.072,362.12 L745.587,357.838 L745.087,354.01 L744.542,350.671 L744.246,349.149 C743.865,346.659 746.135,341.972 749.319,338.679 C752.508,335.951 750.633,336.935 755.052,335.941 z" fill="#FFFFFF"/>
    <path d="M622.284,320.933 C623.998,323.584 624.466,326.817 625.074,329.858 C625.125,330.123 625.125,330.123 625.176,330.387 C625.656,333.042 626.227,335.668 627.288,338.154 L626.466,340.451 L625.064,344.348 L623.567,349.095 L624.482,348.416 C627.733,345.473 630.477,341.371 635.892,340.405 L636.403,340.911 L636.327,342.323 L636.335,345.186 L636.486,348.156 L636.798,351.196 L637.216,354.349 L637.732,357.613 L638.703,362.668 L640.31,369.687 L642.24,376.96 L644.467,384.392 L646.963,391.896 L651.141,403.106 L655.585,414.17 L657.245,418.134 C658.191,420.895 659.266,423.607 660.376,426.306 L661.247,428.728 L663.353,436.318 L665.225,443.695 L666.854,450.753 L667.621,454.082 C667.625,454.086 667.618,454.097 667.608,454.108 C667.599,454.119 667.589,454.125 667.587,454.122 L665.364,452.368 L660.963,448.291 L656.765,443.397 L652.796,437.783 L649.399,431.204 L646.435,423.93 L644.374,418.588 L639.234,418.647 L629.905,418.334 L620.874,417.728 L613.11,417.276 L613.103,417.278 L611.999,417.479 L610.826,417.633 L609.579,417.744 L608.257,417.8 L606.859,417.791 L605.386,417.707 L603.85,417.507 L602.239,417.216 L601.459,417.008 L599.233,417.022 L598.699,417.036 L597.718,419.702 L596.173,423.769 L581.274,450.216 L581.811,447.992 L582.398,445.602 L583.393,441.735 L584.92,436.103 L586.637,429.989 L588.602,423.501 L590.77,416.705 L593.085,409.661 L595.485,402.425 L599.134,391.349 L604.01,376.577 L607.607,365.831 L609.879,358.945 L612.029,352.369 L614.044,346.182 L615.902,340.459 L617.186,336.521 L617.985,334.08 L618.731,331.798 L619.426,329.686 L620.067,327.752 L620.637,326.03 L620.645,326 L621.205,324.163 L621.696,322.654 L622.101,321.451 L622.284,320.933 z M633.161,400.897 L632.121,400.898 L631.17,400.932 L630.307,400.995 L629.532,401.082 L628.84,401.196 L628.233,401.333 L627.71,401.486 L627.274,401.643 L626.924,401.798 L626.66,401.939 L626.477,402.056 L626.361,402.138 L626.294,402.189 L626.248,402.224 L626.203,402.269 L626.182,402.28 L626.07,402.47 L625.844,403.024 L625.605,403.786 L625.352,404.718 L625.061,405.798 L624.697,407.017 L624.199,408.372 L623.553,409.772 L622.948,410.831 L622.448,411.578 L621.892,412.303 L621.288,412.992 L620.644,413.633 L620.607,413.665 L642.857,414.659 L642.109,412.719 L637.858,401.577 L637.604,400.948 L636.902,400.966 L635.543,400.94 L634.294,400.925 L633.161,400.897 z M617.714,364.614 L615.984,369.41 L612.179,380.071 L606.876,394.67 L602.881,405.603 L600.276,412.755 L609.744,413.179 L609.864,413.161 L611.168,412.951 L612.369,412.731 L613.473,412.492 L614.481,412.241 L615.399,411.973 L616.229,411.689 L616.971,411.398 L617.63,411.096 L618.205,410.789 L618.698,410.488 L619.113,410.194 L619.452,409.915 L619.722,409.655 L619.934,409.42 L620.099,409.206 L620.231,409.006 L620.346,408.809 L620.542,408.42 L620.771,407.85 L620.981,407.211 L621.212,406.436 L621.461,405.546 L621.748,404.557 L622.104,403.471 L622.585,402.275 L623.11,401.231 L623.578,400.461 L624.081,399.765 L624.649,399.099 L625.269,398.492 L625.921,397.965 L626.592,397.522 L627.277,397.157 L627.978,396.862 L628.7,396.627 L629.451,396.451 L630.239,396.324 L631.072,396.243 L631.957,396.206 L632.898,396.22 L633.901,396.281 L634.972,396.391 L635.811,396.511 L634.985,394.467 L632.081,387.75 L629.154,381.538 L626.216,375.936 L624,372.212 L622.507,369.997 L621.013,368 L619.513,366.242 L617.96,364.793 L617.714,364.614 z" fill="#FFFFFF"/>
    <path d="M784.218,330.877 L784.22,330.881 L784.6,330.999 L785.503,331.403 L786.471,332.089 L787.351,333.135 L788.376,334.393 L789.258,336.009 L789.989,337.967 L790.667,340.193 L790.928,344.37 L790.328,351.133 L789.614,358.562 L789.208,363.38 L789.349,363.552 L791.221,366.335 L794.87,371.618 L798.476,376.652 L802.046,381.503 L807.361,388.547 L812.498,395.301 L813.352,395.013 L816.176,394.177 L818.24,393.582 L820.458,392.909 L822.855,392.163 L825.456,391.339 L828.281,390.432 L831.354,389.435 L834.695,388.342 L838.323,387.143 L842.26,385.832 L846.528,384.399 L851.145,382.835 L853.588,381.992 L853.595,381.992 L853.601,381.998 C853.604,382.004 853.601,382.009 853.596,382.011 L851.245,383.085 L846.822,385.136 L842.74,387.036 L838.98,388.794 L835.52,390.418 L832.343,391.92 L829.425,393.306 L826.749,394.586 L824.294,395.775 L822.043,396.88 L819.976,397.918 L818.081,398.908 L816.013,399.981 L820.955,406.648 L827.248,415.926 L831.927,423.208 L834.995,428.266 L838.004,433.49 L841.002,438.913 L842.499,441.713 C843.106,442.579 842.989,443.23 842.237,443.168 C841.486,443.108 840.385,442.357 839.779,441.491 L837.329,438.664 L832.589,433.219 L828.053,428.03 L823.742,423.063 L817.614,415.885 L809.862,406.597 L807.858,403.995 L806.764,404.548 L803.99,405.981 L801.018,407.56 L797.686,409.367 L794.861,410.927 L792.787,412.086 L790.541,413.36 L788.292,414.658 L788.373,416.747 L788.411,419.632 L788.385,422.342 L788.287,424.863 L788.237,426.038 C788.136,429.145 785.425,433.132 782.182,434.945 C778.939,436.759 776.391,435.711 776.492,432.605 L776.516,431.473 L776.565,429.008 L776.684,426.271 L776.866,423.285 L777.202,419.059 C773.564,417.689 774.933,418.807 772.89,415.973 C771.471,412.843 772.86,409.153 775.991,407.734 L777.72,407.268 L778.213,407.115 L778.501,403.535 L778.694,395.767 L778.445,384.122 L778.028,372.683 L777.591,365.469 L777.091,358.729 L776.698,352.524 L777.106,347.95 L777.878,344.88 L778.703,342.018 L779.675,339.329 L780.787,336.836 L781.753,334.724 L782.803,332.885 L783.786,331.435 L784.205,330.89 C784.205,330.886 784.209,330.881 784.213,330.879 L784.218,330.877 z M788.287,376.877 L788.182,378.525 L787.56,390.677 L787.493,398.381 L787.769,403.982 L788.935,403.577 L791.181,402.784 L794.232,401.698 L797.823,400.411 L801.03,399.266 L803.53,398.38 L802.746,397.362 L795.911,387.957 L790.839,380.649 L788.287,376.877 z" fill="#FFFFFF"/>
    <path d="M723.935,339.673 C729.002,341.758 727.524,340.037 729.323,343.828 L729.474,345.973 L729.79,350.014 L730.123,353.744 L730.453,357.19 L730.79,360.366 L731.138,363.284 L731.47,365.977 L731.798,368.457 L732.129,370.734 L732.444,372.837 L732.92,375.685 L733.581,378.982 L734.174,381.889 L735.106,385.719 L735.993,389.372 L736.583,391.924 L737.196,394.721 L737.846,397.887 L738.536,401.556 L739.062,404.73 L739.397,407.091 L739.553,408.356 C739.727,409.006 739.385,409.827 738.787,410.191 C738.191,410.556 737.565,410.325 737.391,409.675 L736.918,408.604 L736.069,406.559 L734.98,403.729 L733.777,400.371 L732.779,397.41 L731.931,394.742 L731.186,392.256 L730.183,388.634 L729.178,384.817 L728.356,382.024 L727.434,378.866 L726.576,376.232 L725.92,374.321 L725.205,372.261 L724.402,370.053 L723.516,367.676 L722.548,365.113 L721.464,362.367 L720.261,359.421 L718.942,356.259 L717.48,352.879 L716.691,351.106 C715.774,347.284 717.859,342.556 721.346,340.546 L723.935,339.673 z" fill="#FFFFFF"/>
    <path d="M712.985,332.203 C706.115,331.281 701.308,324.859 702.247,317.859 C703.186,310.859 709.409,305.917 716.279,306.838 C723.148,307.76 727.956,314.182 727.017,321.182 C726.078,328.182 719.854,333.124 712.985,332.203 z" fill="#FFB464"/>
    <path d="M580.935,319.757 C586.331,321.3 588.84,325.087 590.462,330.114 C592.129,338.951 596.192,342.268 595.143,341.955 L594.985,341.914 C592.593,338.53 591.384,334.612 590.444,330.631 C589.945,325.33 580.377,317.018 577.518,320.582 L577.453,320.168 C578.501,318.861 577.643,319.654 580.935,319.757 z" fill="#5E7558"/>
    <path d="M574.134,317.684 C577.052,334.765 576.636,336.56 593.087,340.831 C593.455,341.43 593.623,341.308 593.239,341.437 C582.325,338.185 577.338,341.133 574.044,317.796 L574.134,317.684 z" fill="#5E7558"/>
    <path d="M575.649,319.551 C577.461,319.621 576.448,319.579 578.686,319.681 C584.357,321.019 587.143,324.824 589.07,329.957 C589.95,334.16 591.942,337.92 594.329,341.437 C579.341,339.3 577.995,333.905 575.177,320.165 L575.649,319.551 z" fill="#5E7558"/>
    <g>
      <path d="M824.041,362.049 C818.003,362.335 812.868,357.489 812.573,351.228 C812.277,344.966 816.932,339.658 822.971,339.373 C829.009,339.088 834.143,343.933 834.439,350.195 C834.735,356.457 830.08,361.764 824.041,362.049 z" fill-opacity="0" stroke="#FFFFFF" stroke-width="0.5" stroke-linecap="square" stroke-linejoin="round"/>
      <g>
        <path d="M821.941,345.952 L821.989,346.977 L819.091,347.114 L819.449,354.689 L818.267,354.745 L817.909,347.169 L815.011,347.306 L814.963,346.282 z" fill="#FFFFFF"/>
        <path d="M823.006,345.902 L824.382,345.837 L829.055,352.598 L828.726,345.632 L829.832,345.58 L830.238,354.179 L828.933,354.241 L824.196,347.489 L824.525,354.449 L823.412,354.502 z M826.343,345.744" fill="#FFFFFF"/>
      </g>
    </g>
    <path d="M448.581,361.934 L448.238,361.633 L447.539,361.094 L446.873,360.544 L446.235,359.987 L445.63,359.414 L445.078,358.797 L444.568,358.162 L444.115,357.495 L443.719,356.805 L443.382,356.102 L443.104,355.391 L442.894,354.675 L442.757,353.958 L442.688,353.258 L442.694,352.58 L442.763,351.942 L442.813,351.709 L442.789,351.854 L442.88,351.434 L443.064,350.868 L443.256,350.471 L443.465,350.145 L443.693,349.861 L443.954,349.589 L444.269,349.313 L444.65,349.031 L445.103,348.748 L445.625,348.483 L446.211,348.248 L446.853,348.054 L447.544,347.911 L448.274,347.828 L449.038,347.814 L449.827,347.871 L450.208,347.925 L450.168,347.919 L450.61,348.001 L451.413,348.207 L452.162,348.475 L452.874,348.808 L453.545,349.197 L454.168,349.641 L454.741,350.134 L455.259,350.669 L455.717,351.243 L456.114,351.847 L456.444,352.473 L456.705,353.117 L456.893,353.769 L457.013,354.414 L457.061,355.047 L457.039,355.655 L457.011,355.882 L457.033,355.741 L456.968,356.153 L456.826,356.721 L456.662,357.148 L456.47,357.526 L456.241,357.882 L455.961,358.239 L455.621,358.629 L455.199,359.041 L454.69,359.473 L454.096,359.907 L453.421,360.326 L452.672,360.724 L451.859,361.077 L450.987,361.387 L450.061,361.646 L449.085,361.854 L448.581,361.934 L448.581,361.934 C448.58,361.933 448.579,361.934 448.578,361.936 C448.578,361.937 448.578,361.938 448.579,361.938 C448.579,361.938 448.579,361.938 448.579,361.938 L448.968,362.139 L449.763,362.461 L450.577,362.667 L451.405,362.764 L452.243,362.749 L453.084,362.633 L453.93,362.398 L454.776,362.044 L455.618,361.562 L456.447,360.94 L457.247,360.182 L457.988,359.286 L458.649,358.289 L459.207,357.221 L459.643,356.117 L459.942,355.074 L460.033,354.652 L460.033,354.652 C460.042,354.605 460.05,354.558 460.056,354.512 L460.056,354.512 L460.14,353.898 L460.205,352.838 L460.162,351.829 L460.022,350.866 L459.789,349.954 L459.474,349.088 L459.081,348.268 L458.613,347.498 L458.076,346.78 L457.473,346.116 L456.807,345.51 L456.081,344.968 L455.299,344.491 L454.463,344.088 L453.576,343.76 L452.662,343.52 L452.217,343.438 L452.217,343.438 C452.204,343.435 452.191,343.433 452.177,343.431 L452.177,343.431 L451.665,343.364 L450.684,343.307 L449.707,343.346 L448.737,343.477 L447.777,343.701 L446.829,344.021 L445.894,344.44 L444.976,344.963 L444.078,345.594 L443.209,346.347 L442.383,347.217 L441.624,348.199 L440.961,349.268 L440.42,350.388 L440.011,351.523 L439.756,352.567 L439.689,352.98 L439.689,352.98 C439.68,353.029 439.672,353.078 439.666,353.125 L439.666,353.125 L439.604,353.732 L439.586,354.763 L439.682,355.727 L439.872,356.635 L440.157,357.482 L440.523,358.276 L440.969,359.012 L441.495,359.683 L442.095,360.284 L442.764,360.816 L443.493,361.279 L444.29,361.649 L445.137,361.942 L446.047,362.121 L447.017,362.167 L448.035,362.075 L448.579,361.938 C448.579,361.938 448.579,361.938 448.579,361.938 C448.58,361.938 448.581,361.937 448.581,361.936 C448.582,361.935 448.582,361.934 448.581,361.934 L448.581,361.934" fill="#4A819E"/>
    <path d="M430.188,362.609 L429.956,362.28 L429.501,361.654 L429.091,361.022 L428.724,360.389 L428.404,359.749 L428.145,359.092 L427.934,358.436 L427.785,357.774 L427.692,357.117 L427.652,356.475 L427.67,355.851 L427.739,355.256 L427.861,354.697 L428.026,354.183 L428.232,353.716 L428.471,353.293 L428.573,353.15 L428.504,353.258 L428.713,352.96 L429.055,352.558 L429.397,352.237 L429.785,351.938 L430.222,351.662 L430.705,351.414 L431.231,351.205 L431.791,351.041 L432.381,350.924 L432.992,350.863 L433.618,350.859 L434.252,350.915 L434.889,351.031 L435.522,351.212 L436.146,351.459 L436.755,351.771 L437.043,351.947 L437.024,351.935 L437.331,352.142 L437.879,352.572 L438.363,353.036 L438.792,353.535 L439.166,354.064 L439.482,354.618 L439.74,355.19 L439.939,355.773 L440.079,356.362 L440.16,356.948 L440.184,357.523 L440.151,358.078 L440.066,358.606 L439.935,359.099 L439.761,359.556 L439.545,359.983 L439.451,360.134 L439.518,360.03 L439.319,360.337 L438.986,360.766 L438.64,361.124 L438.241,361.466 L437.788,361.786 L437.283,362.077 L436.731,362.349 L436.136,362.583 L435.504,362.779 L434.842,362.932 L434.156,363.033 L433.45,363.086 L432.734,363.08 L432.009,363.018 L431.281,362.898 L430.551,362.721 L430.188,362.609 L430.188,362.609 C430.188,362.608 430.187,362.609 430.187,362.609 C430.186,362.61 430.186,362.611 430.187,362.611 L430.459,362.882 L431.032,363.365 L431.641,363.764 L432.279,364.081 L432.942,364.317 L433.62,364.478 L434.314,364.553 L435.018,364.55 L435.727,364.461 L436.439,364.285 L437.15,364.022 L437.854,363.655 L438.546,363.197 L439.218,362.644 L439.859,361.99 L440.42,361.294 L440.629,360.995 L440.629,360.995 C440.652,360.961 440.674,360.926 440.695,360.891 L440.695,360.891 L440.978,360.418 L441.407,359.56 L441.736,358.697 L441.967,357.841 L442.106,357.003 L442.161,356.185 L442.139,355.388 L442.043,354.616 L441.876,353.868 L441.642,353.147 L441.343,352.457 L440.979,351.8 L440.552,351.18 L440.064,350.603 L439.515,350.071 L438.916,349.596 L438.608,349.389 L438.608,349.389 C438.602,349.385 438.596,349.381 438.59,349.377 L438.59,349.377 L438.243,349.17 L437.549,348.822 L436.835,348.55 L436.105,348.352 L435.363,348.227 L434.613,348.175 L433.859,348.196 L433.105,348.291 L432.353,348.459 L431.607,348.706 L430.869,349.032 L430.144,349.442 L429.435,349.944 L428.752,350.54 L428.108,351.23 L427.556,351.954 L427.356,352.261 L427.356,352.261 C427.333,352.296 427.31,352.332 427.288,352.368 L427.288,352.368 L427.012,352.85 L426.607,353.712 L426.311,354.566 L426.113,355.401 L426.011,356.207 L425.993,356.986 L426.057,357.733 L426.194,358.449 L426.407,359.129 L426.691,359.771 L427.038,360.378 L427.458,360.931 L427.939,361.44 L428.489,361.884 L429.113,362.247 L429.804,362.525 L430.187,362.611 C430.187,362.611 430.188,362.611 430.188,362.61 C430.189,362.61 430.189,362.609 430.188,362.609 L430.188,362.609" fill="#64AFD6"/>
    <path d="M378.694,358.865 C379.665,359.155 379.249,358.969 379.967,359.366 C381.29,360.196 382.537,361.757 382.753,362.853 L382.875,363.91 L383.11,365.989 L383.343,368.018 L383.55,369.982 L383.752,371.893 L383.931,373.74 L384.098,375.531 L384.25,377.265 L384.377,378.935 L384.494,380.55 L384.595,382.109 L384.651,383.196 L384.85,384.311 L385.092,385.641 L385.346,386.911 L385.615,388.119 L385.897,389.267 L386.187,390.354 L386.486,391.384 L386.796,392.35 L387.113,393.257 L387.434,394.105 L387.76,394.896 L388.089,395.631 L388.42,396.31 L388.753,396.93 L389.088,397.494 L389.422,398.005 L389.755,398.464 L390.086,398.872 L390.415,399.23 L390.74,399.54 L391.062,399.803 L391.38,400.02 L391.694,400.19 L392.004,400.314 L392.309,400.395 L392.608,400.434 L392.903,400.43 L393.193,400.384 L393.476,400.296 L393.754,400.165 L394.025,399.992 L394.29,399.775 L394.547,399.516 L394.796,399.213 L395.036,398.865 L395.266,398.472 L395.486,398.034 L395.694,397.551 L395.891,397.023 L396.075,396.451 L396.245,395.832 L396.4,395.168 L396.539,394.459 L396.662,393.704 L396.767,392.904 L396.853,392.059 L396.929,391.175 L397.007,390.258 L397.062,389.291 L397.095,388.276 L397.108,387.214 L397.094,386.104 L397.056,384.946 L396.99,383.719 L396.944,383.054 C396.941,383.006 396.939,382.958 396.938,382.911 L397.072,381.607 L398.929,381.158 L399.258,381.831 L399.364,382.131 L399.443,382.38 L399.523,382.644 L399.611,382.94 L399.708,383.276 L399.817,383.65 L399.937,384.064 L400.069,384.513 L400.213,384.997 L400.368,385.511 L400.531,386.048 L400.795,386.9 L401.182,388.111 L401.606,389.369 L402.06,390.65 L402.538,391.926 L403.035,393.166 L403.544,394.34 L404.055,395.419 L404.574,396.403 L404.961,397.057 L405.2,397.425 L405.432,397.751 L405.653,398.033 L405.863,398.269 L406.059,398.466 L406.244,398.623 L406.416,398.743 L406.578,398.829 L406.735,398.885 L406.889,398.912 L407.048,398.91 L407.215,398.871 L407.394,398.786 L407.588,398.645 L407.797,398.44 L408.024,398.165 L408.265,397.806 L408.518,397.354 L408.79,396.815 L409.071,396.172 L409.372,395.438 L409.686,394.596 L410.025,393.662 L410.384,392.621 L410.754,391.461 L411.149,390.191 L411.559,388.8 L412.003,387.298 L412.48,385.683 L412.817,384.612 L412.664,383.761 L412.439,382.184 L412.248,380.573 L412.103,378.919 L412,377.225 L411.936,375.49 L411.92,374.582 C412.022,373.115 413.113,371.378 414.357,370.704 C415.6,370.03 416.525,370.673 416.422,372.14 L416.284,372.989 L416.062,374.713 L415.915,376.402 L415.837,378.055 L415.821,379.675 L415.876,381.252 L415.982,382.799 L416.15,384.303 L416.376,385.766 L416.65,387.194 L416.984,388.574 L417.363,389.916 L417.796,391.211 L418.269,392.468 L418.793,393.675 L419.355,394.844 L419.959,395.965 L420.603,397.041 L421.279,398.078 L421.997,399.061 L422.745,400.004 L423.522,400.904 L424.331,401.755 L425.143,402.595 L425.976,403.398 L426.832,404.159 L427.711,404.875 L428.609,405.55 L429.523,406.184 L430.454,406.777 L431.398,407.328 L432.357,407.832 L433.328,408.293 L434.308,408.712 L435.295,409.089 L436.288,409.424 L437.285,409.717 L438.287,409.962 L439.29,410.164 L440.291,410.324 L441.29,410.441 L442.284,410.516 L443.271,410.549 L444.251,410.535 L445.221,410.479 L446.178,410.38 L447.121,410.241 L448.047,410.06 L448.955,409.839 L449.841,409.577 L450.704,409.274 L451.542,408.933 L452.351,408.557 L453.129,408.147 L453.874,407.705 L454.584,407.233 L455.257,406.73 L455.892,406.202 L456.489,405.651 L457.048,405.077 L457.572,404.48 L458.062,403.859 L458.521,403.21 L458.988,402.469 L459.262,401.995 L459.2,402.099 L459.51,401.526 L459.67,401.21 L459.427,401.33 L458.208,401.858 L456.978,402.324 L455.739,402.728 L454.492,403.072 L453.24,403.355 L451.99,403.57 L450.739,403.728 L449.491,403.828 L448.25,403.871 L447.016,403.856 L445.793,403.784 L444.584,403.653 L443.395,403.459 L442.225,403.207 L441.078,402.898 L439.957,402.53 L438.863,402.105 L437.801,401.62 L436.773,401.076 L435.783,400.472 L434.837,399.802 L433.934,399.071 L433.079,398.278 L432.274,397.421 L431.523,396.5 L430.83,395.513 L430.199,394.46 L429.632,393.336 L429.136,392.142 L428.717,390.874 L428.377,389.532 L428.121,388.116 L427.953,386.624 L427.879,385.057 L427.905,383.415 L428.034,381.697 L428.206,380.328 L428.361,379.379 L428.454,378.88 C428.464,378.829 428.474,378.778 428.485,378.727 L428.567,378.346 L428.873,377.231 L429.33,375.966 L429.918,374.696 L430.63,373.458 L431.44,372.3 L432.314,371.257 L433.221,370.345 L434.138,369.563 L435.054,368.899 L435.965,368.337 L436.873,367.861 L437.779,367.46 L438.687,367.124 L439.599,366.846 L440.517,366.621 L441.441,366.446 L442.374,366.316 L443.313,366.229 L444.26,366.185 L445.213,366.181 L446.171,366.217 L447.133,366.292 L448.097,366.405 L449.063,366.556 L450.027,366.745 L450.989,366.971 L451.946,367.233 L452.897,367.533 L453.839,367.869 L454.77,368.243 L455.689,368.654 L456.592,369.101 L457.479,369.584 L458.346,370.104 L459.193,370.66 L460.016,371.253 L460.783,371.929 L461.521,372.641 L462.228,373.389 L462.902,374.172 L463.54,374.991 L464.14,375.847 L464.7,376.74 L465.216,377.671 L465.685,378.641 L466.107,379.649 L466.476,380.698 L466.79,381.787 L467.046,382.918 L467.241,384.091 L467.37,385.307 L467.43,386.566 L467.417,387.868 L467.326,389.214 L467.17,390.477 L467.615,389.951 L468.144,389.248 L468.644,388.486 L469.116,387.654 L469.555,386.743 L469.97,385.742 L470.346,384.649 L470.671,383.463 L470.936,382.187 L471.139,380.822 L471.292,379.359 L471.366,377.813 L471.358,376.188 L471.291,374.461 L471.142,372.646 L470.988,371.218 L470.866,370.233 L470.733,369.216 L470.601,368.153 L470.533,367.607 C470.532,367.606 470.533,367.603 470.535,367.602 C470.536,367.6 470.538,367.6 470.539,367.601 L470.784,367.972 L471.239,368.722 L471.641,369.493 L472.003,370.271 L472.48,371.438 L472.998,372.995 L473.408,374.538 L473.69,376.081 L473.877,377.601 L473.969,379.101 L473.945,380.596 L473.824,382.078 L473.608,383.547 L473.297,385.005 L472.883,386.453 L472.36,387.887 L471.74,389.296 L471.028,390.671 L470.229,392.002 L469.349,393.274 L468.401,394.476 L467.398,395.605 L466.348,396.657 L465.259,397.627 L465.117,397.74 L464.997,398.042 L464.293,399.603 L463.497,401.177 L462.611,402.76 L462.109,403.602 C462.089,403.637 462.068,403.671 462.048,403.706 L461.753,404.17 L461.029,405.235 L460.228,406.298 L459.39,407.295 L458.521,408.222 L457.627,409.079 L456.711,409.866 L455.779,410.583 L454.832,411.232 L453.873,411.821 L452.903,412.347 L451.922,412.814 L450.933,413.224 L449.934,413.578 L448.927,413.879 L447.913,414.131 L446.891,414.334 L445.862,414.487 L444.829,414.593 L443.791,414.65 L442.749,414.661 L441.705,414.626 L440.658,414.549 L439.61,414.426 L438.563,414.259 L437.518,414.046 L436.477,413.79 L435.44,413.489 L434.406,413.149 L433.379,412.767 L432.36,412.34 L431.352,411.87 L430.355,411.357 L429.37,410.802 L428.395,410.21 L427.436,409.576 L426.494,408.898 L425.57,408.179 L424.666,407.416 L423.78,406.616 L422.915,405.776 L422.077,404.89 L421.287,403.934 L420.518,402.944 L419.775,401.916 L419.063,400.847 L418.372,399.751 L417.713,398.615 L417.084,397.443 L416.484,396.238 L415.921,394.992 L415.384,393.718 L414.888,392.401 L414.422,391.055 L414.047,389.83 L413.941,391.163 L413.747,392.925 L413.529,394.565 L413.279,396.078 L413.009,397.479 L412.713,398.765 L412.386,399.926 L412.04,400.983 L411.671,401.928 L411.287,402.782 L410.882,403.531 L410.462,404.189 L410.026,404.756 L409.57,405.221 L409.098,405.588 L408.612,405.854 L408.114,406.015 L407.609,406.07 L407.102,406.017 L406.599,405.863 L406.106,405.616 L405.626,405.286 L405.162,404.883 L404.717,404.416 L404.29,403.893 L403.881,403.325 L403.489,402.717 L403.114,402.075 L402.594,401.085 L401.937,399.671 L401.317,398.165 L400.742,396.621 L400.208,395.063 L399.715,393.516 L399.377,392.386 L399.344,392.769 L399.207,393.834 L399.04,394.844 L398.853,395.805 L398.648,396.716 L398.424,397.577 L398.182,398.388 L397.923,399.147 L397.648,399.856 L397.356,400.513 L397.049,401.117 L396.727,401.668 L396.392,402.164 L396.043,402.607 L395.682,402.995 L395.308,403.327 L394.925,403.601 L394.531,403.817 L394.128,403.974 L393.717,404.071 L393.3,404.108 L392.878,404.084 L392.451,403.999 L392.022,403.853 L391.591,403.646 L391.16,403.379 L390.73,403.053 L390.303,402.668 L389.879,402.223 L389.459,401.72 L389.045,401.159 L388.637,400.541 L388.237,399.867 L387.845,399.137 L387.461,398.354 L387.084,397.52 L386.718,396.631 L386.362,395.688 L386.017,394.692 L385.684,393.641 L385.362,392.538 L385.049,391.386 L384.843,390.556 L384.833,391.437 L384.8,392.547 L384.755,393.606 L384.694,394.611 L384.618,395.564 L384.53,396.467 L384.424,397.316 L384.301,398.11 L384.167,398.857 L384.016,399.552 L383.849,400.194 L383.666,400.785 L383.471,401.328 L383.262,401.822 L383.037,402.266 L382.798,402.661 L382.544,403.008 L382.276,403.308 L381.996,403.563 L381.701,403.772 L381.389,403.933 L381.06,404.047 L380.711,404.113 L380.34,404.129 L379.942,404.09 L379.513,403.992 L379.051,403.828 L378.554,403.592 L378.029,403.28 L377.486,402.896 L376.941,402.45 L376.406,401.954 L375.891,401.42 L375.4,400.857 L374.933,400.272 L374.487,399.665 L374.06,399.036 L373.648,398.385 L373.249,397.711 L372.863,397.012 L372.486,396.286 L372.118,395.535 L372.061,395.41 L371.923,395.713 L371.635,396.347 L371.323,397.025 L370.988,397.738 L370.435,398.847 L369.602,400.36 L368.899,401.493 L368.389,402.232 L367.85,402.942 L367.275,403.618 L366.66,404.247 L366.007,404.826 L365.314,405.346 L364.579,405.8 L363.797,406.178 L362.961,406.466 L362.067,406.656 L361.109,406.736 L360.322,406.715 L359.757,406.653 L359.191,406.554 L358.601,406.414 L358.262,406.318 C358.241,406.312 358.22,406.305 358.199,406.298 L357.807,406.174 L356.963,405.875 L356.102,405.525 L355.252,405.129 L354.41,404.691 L353.573,404.204 L352.738,403.656 L351.909,403.05 L351.088,402.387 L350.285,401.665 L349.516,400.891 L348.795,400.086 L348.139,399.265 L347.565,398.447 L347.07,397.648 L346.662,396.879 L346.333,396.147 L346.07,395.447 L345.817,394.498 L345.632,393.29 L345.602,392.126 L345.716,391.025 L345.963,389.977 L346.302,388.952 L346.636,388.207 L346.896,387.727 L347.183,387.265 L347.49,386.809 L347.821,386.362 L348.18,385.932 L348.567,385.517 L348.982,385.12 L349.416,384.733 L349.876,384.364 L350.364,384.015 L350.878,383.687 L351.42,383.382 L351.985,383.097 L352.572,382.831 L353.185,382.591 L353.824,382.377 L354.49,382.192 L355.182,382.035 L355.895,381.905 L356.63,381.801 L357.391,381.729 L358.177,381.691 L358.987,381.688 L359.823,381.721 L360.679,381.786 L361.557,381.884 L362.458,382.022 L363.384,382.199 L364.333,382.418 L365.305,382.679 L366.299,382.981 L367.313,383.323 L368.35,383.711 L368.881,383.924 C369.058,383.994 369.273,384.204 369.361,384.395 C369.449,384.586 369.376,384.684 369.199,384.615 L368.694,384.422 L367.695,384.068 L366.719,383.758 L365.767,383.495 L364.841,383.277 L363.938,383.099 L363.058,382.96 L362.201,382.86 L361.368,382.797 L360.563,382.776 L359.784,382.793 L359.03,382.844 L358.299,382.927 L357.594,383.042 L356.913,383.186 L356.26,383.365 L355.637,383.576 L355.039,383.814 L354.467,384.078 L353.92,384.366 L353.399,384.677 L352.909,385.016 L352.449,385.38 L352.016,385.764 L351.609,386.166 L351.23,386.586 L350.879,387.024 L350.564,387.485 L350.276,387.96 L350.017,388.447 L349.785,388.945 L349.588,389.458 L349.427,389.987 L349.296,390.517 L349.152,391.321 L349.06,392.408 L349.111,393.51 L349.272,394.58 L349.531,395.59 L349.881,396.539 L350.193,397.188 L350.386,397.538 L350.577,397.842 L350.751,398.093 L350.903,398.296 L351.041,398.458 L351.162,398.594 L351.282,398.721 L351.421,398.852 L351.592,399.004 L351.811,399.183 L352.089,399.385 L352.429,399.608 L352.834,399.853 L353.303,400.106 L353.831,400.358 L354.418,400.609 L355.091,400.865 L355.485,400.999 L355.422,400.979 L355.563,401.028 L355.919,401.131 L356.28,401.212 L356.624,401.272 L357.165,401.325 L357.915,401.315 L358.657,401.213 L359.387,401.023 L360.102,400.754 L360.797,400.409 L361.469,399.994 L362.117,399.518 L362.739,398.988 L363.34,398.418 L363.917,397.812 L364.465,397.181 L365.241,396.193 L366.189,394.842 L366.835,393.847 L367.235,393.209 L367.612,392.597 L367.964,392.018 L368.293,391.481 L368.6,390.991 L368.886,390.556 L369.156,390.179 L369.42,389.863 L369.71,389.605 L370.187,389.432 L371.846,390.12 L373.48,391.966 L373.792,392.639 L373.839,392.797 C373.847,392.821 373.855,392.844 373.862,392.867 L373.961,393.247 L374.172,394.006 L374.391,394.734 L374.618,395.432 L374.851,396.097 L375.09,396.727 L375.332,397.323 L375.576,397.882 L375.821,398.402 L376.064,398.88 L376.301,399.314 L376.529,399.702 L376.743,400.041 L376.94,400.331 L377.115,400.571 L377.268,400.765 L377.4,400.922 L377.521,401.053 L377.641,401.167 L377.775,401.274 L377.932,401.376 L378.116,401.469 L378.326,401.544 L378.557,401.594 L378.804,401.613 L379.061,401.595 L379.325,401.536 L379.592,401.436 L379.858,401.29 L380.123,401.1 L380.381,400.86 L380.634,400.573 L380.879,400.237 L381.116,399.853 L381.344,399.419 L381.563,398.936 L381.766,398.398 L381.957,397.808 L382.135,397.166 L382.3,396.472 L382.443,395.718 L382.57,394.91 L382.682,394.047 L382.768,393.123 L382.833,392.14 L382.875,391.097 L382.889,389.991 L382.883,388.826 L382.849,387.598 L382.786,386.306 L382.697,384.951 L382.574,383.528 L382.424,382.042 L382.233,380.483 L382.015,378.861 L381.761,377.169 L381.466,375.404 L381.14,373.574 L380.773,371.67 L380.361,369.692 L379.914,367.643 L379.413,365.514 L378.876,363.314 L378.279,361.027 L377.962,359.849 C377.871,359.045 377.981,359.037 378.694,358.865 L378.694,358.865 z M441.357,374.263 L440.587,374.293 L439.843,374.354 L439.128,374.447 L438.446,374.568 L437.805,374.714 L437.209,374.883 L436.664,375.07 L436.179,375.267 L435.759,375.467 L435.413,375.657 L435.145,375.822 L434.958,375.947 L434.845,376.02 L434.787,376.04 L434.758,376.024 L434.729,376.008 L434.678,376.038 L434.604,376.154 L434.489,376.5 L434.414,376.839 L434.379,377.013 L434.272,377.613 L434.138,378.514 L434.02,379.726 L433.976,380.902 L434.004,382.041 L434.102,383.144 L434.27,384.213 L434.506,385.244 L434.809,386.238 L435.174,387.195 L435.602,388.113 L436.091,388.991 L436.639,389.824 L437.243,390.614 L437.9,391.358 L438.608,392.056 L439.363,392.707 L440.163,393.31 L441.002,393.868 L441.878,394.379 L442.789,394.84 L443.731,395.251 L444.702,395.612 L445.698,395.923 L446.714,396.183 L447.749,396.393 L448.796,396.558 L449.852,396.675 L450.916,396.741 L451.985,396.757 L453.052,396.724 L454.116,396.641 L455.173,396.51 L456.216,396.339 L457.243,396.122 L458.252,395.86 L459.238,395.552 L460.196,395.202 L461.122,394.811 L462.013,394.388 L462.121,394.33 L462.189,393.965 L462.31,393.009 L462.373,392.075 L462.382,391.158 L462.337,390.259 L462.238,389.377 L462.087,388.512 L461.884,387.666 L461.629,386.84 L461.324,386.034 L460.971,385.25 L460.572,384.488 L460.127,383.751 L459.639,383.039 L459.111,382.353 L458.542,381.695 L457.936,381.065 L457.296,380.463 L456.623,379.891 L455.92,379.35 L455.188,378.84 L454.462,378.313 L453.712,377.816 L452.939,377.35 L452.149,376.916 L451.341,376.514 L450.521,376.144 L449.689,375.807 L448.849,375.502 L448.003,375.229 L447.154,374.99 L446.304,374.785 L445.457,374.614 L444.615,374.476 L443.78,374.372 L442.957,374.302 L442.148,374.266 L441.357,374.263 z M370.218,390.809 L370.283,391.023 L370.312,391.057 L370.26,390.907 L370.282,390.977 L370.218,390.809 z M399.516,383.332 L399.522,383.477 L399.522,383.476 L399.516,383.332 z" fill="#FFFFFF"/>
    <path d="M413.009,420.809 L412.876,420.545 L412.613,420.044 L412.359,419.58 L412.149,419.097 L411.966,418.62 L411.823,418.137 L411.711,417.66 L411.639,417.183 L411.604,416.715 L411.602,416.263 L411.637,415.829 L411.701,415.423 L411.798,415.047 L411.916,414.709 L412.057,414.411 L412.212,414.149 L412.267,414.081 L412.203,414.184 L412.353,413.967 L412.57,413.71 L412.773,413.522 L413.003,413.344 L413.266,413.174 L413.562,413.017 L413.889,412.88 L414.243,412.769 L414.62,412.688 L415.014,412.642 L415.419,412.635 L415.831,412.667 L416.247,412.742 L416.66,412.862 L417.067,413.028 L417.465,413.239 L417.649,413.356 L417.63,413.343 L417.837,413.489 L418.197,413.785 L418.511,414.102 L418.788,414.444 L419.027,414.806 L419.228,415.186 L419.389,415.577 L419.512,415.974 L419.596,416.374 L419.641,416.77 L419.65,417.154 L419.624,417.522 L419.565,417.867 L419.481,418.184 L419.373,418.474 L419.241,418.741 L419.195,418.818 L419.256,418.719 L419.117,418.944 L418.909,419.228 L418.704,419.453 L418.464,419.675 L418.184,419.889 L417.867,420.094 L417.511,420.296 L417.121,420.482 L416.701,420.645 L416.254,420.784 L415.788,420.889 L415.302,420.963 L414.806,420.996 L414.3,420.992 L413.786,420.95 L413.269,420.866 L413.009,420.809 L413.009,420.809 C413.009,420.808 413.008,420.809 413.008,420.81 C413.007,420.81 413.007,420.811 413.008,420.811 L413.178,421.024 L413.545,421.401 L413.943,421.717 L414.367,421.971 L414.813,422.163 L415.277,422.297 L415.758,422.367 L416.252,422.376 L416.757,422.317 L417.271,422.189 L417.791,421.989 L418.314,421.703 L418.833,421.341 L419.341,420.902 L419.829,420.383 L420.252,419.842 L420.403,419.625 L420.403,419.625 C420.424,419.592 420.444,419.559 420.464,419.526 L420.464,419.526 L420.686,419.146 L421.017,418.476 L421.273,417.805 L421.458,417.142 L421.574,416.497 L421.629,415.87 L421.628,415.263 L421.572,414.678 L421.465,414.115 L421.311,413.575 L421.109,413.06 L420.861,412.572 L420.568,412.113 L420.231,411.687 L419.85,411.297 L419.437,410.953 L419.228,410.807 L419.228,410.807 C419.222,410.803 419.215,410.798 419.209,410.794 L419.209,410.794 L418.962,410.642 L418.476,410.392 L417.972,410.199 L417.455,410.061 L416.928,409.978 L416.391,409.949 L415.848,409.978 L415.302,410.062 L414.753,410.202 L414.203,410.405 L413.655,410.671 L413.111,411.005 L412.575,411.411 L412.057,411.894 L411.566,412.449 L411.153,413.018 L411.013,413.243 L411.013,413.243 C410.991,413.277 410.97,413.311 410.949,413.346 L410.949,413.346 L410.735,413.735 L410.428,414.409 L410.204,415.072 L410.054,415.714 L409.976,416.329 L409.959,416.917 L410.004,417.474 L410.103,418.003 L410.258,418.498 L410.464,418.959 L410.716,419.388 L411.021,419.772 L411.37,420.116 L411.775,420.401 L412.214,420.644 L412.725,420.783 L413.008,420.811 C413.008,420.812 413.009,420.811 413.009,420.81 C413.01,420.81 413.01,420.809 413.009,420.809 L413.009,420.809" fill="#4A819E"/>
    <path d="M391.26,422.206 L391.015,422.049 L390.52,421.762 L390.046,421.458 L389.588,421.141 L389.151,420.804 L388.745,420.432 L388.364,420.041 L388.019,419.62 L387.709,419.178 L387.436,418.719 L387.201,418.246 L387.01,417.761 L386.867,417.265 L386.77,416.769 L386.724,416.273 L386.725,415.79 L386.744,415.587 L386.739,415.658 L386.772,415.364 L386.865,414.912 L386.983,414.554 L387.124,414.248 L387.28,413.986 L387.452,413.752 L387.65,413.531 L387.881,413.316 L388.153,413.101 L388.47,412.894 L388.831,412.702 L389.234,412.532 L389.674,412.391 L390.148,412.289 L390.648,412.23 L391.173,412.218 L391.428,412.231 L391.401,412.229 L391.7,412.257 L392.245,412.347 L392.761,412.483 L393.256,412.667 L393.729,412.893 L394.174,413.161 L394.59,413.467 L394.973,413.807 L395.319,414.178 L395.626,414.577 L395.892,414.998 L396.113,415.438 L396.287,415.894 L396.414,416.355 L396.492,416.821 L396.519,417.283 L396.515,417.479 L396.519,417.411 L396.501,417.697 L396.437,418.143 L396.34,418.511 L396.216,418.84 L396.067,419.14 L395.891,419.422 L395.688,419.71 L395.439,420.007 L395.137,420.316 L394.78,420.631 L394.366,420.939 L393.899,421.238 L393.385,421.509 L392.826,421.753 L392.227,421.962 L391.59,422.136 L391.26,422.206 L391.26,422.206 C391.259,422.206 391.259,422.207 391.258,422.207 C391.258,422.208 391.258,422.209 391.259,422.209 L391.529,422.305 L392.075,422.442 L392.627,422.502 L393.183,422.489 L393.741,422.401 L394.297,422.243 L394.851,422.004 L395.4,421.684 L395.937,421.279 L396.452,420.784 L396.933,420.211 L397.355,419.566 L397.712,418.879 L397.995,418.167 L398.2,417.445 L398.326,416.756 L398.36,416.461 L398.36,416.461 C398.362,416.438 398.363,416.415 398.364,416.392 L398.364,416.392 L398.381,416.005 L398.361,415.317 L398.275,414.66 L398.128,414.035 L397.923,413.444 L397.667,412.886 L397.361,412.36 L397.009,411.872 L396.612,411.421 L396.175,411.01 L395.7,410.643 L395.187,410.321 L394.642,410.047 L394.063,409.826 L393.456,409.659 L392.834,409.554 L392.534,409.527 L392.534,409.527 C392.525,409.526 392.516,409.525 392.506,409.525 L392.506,409.525 L392.161,409.512 L391.503,409.537 L390.853,409.627 L390.211,409.781 L389.579,410 L388.959,410.286 L388.352,410.642 L387.763,411.069 L387.197,411.569 L386.664,412.145 L386.177,412.786 L385.751,413.479 L385.401,414.203 L385.135,414.938 L384.952,415.67 L384.854,416.353 L384.836,416.64 L384.836,416.64 C384.833,416.664 384.832,416.688 384.831,416.711 L384.831,416.711 L384.828,417.092 L384.877,417.76 L384.995,418.386 L385.171,418.977 L385.406,419.527 L385.693,420.041 L386.03,420.515 L386.417,420.943 L386.849,421.322 L387.324,421.652 L387.835,421.935 L388.386,422.152 L388.967,422.315 L389.583,422.403 L390.232,422.402 L390.905,422.311 L391.259,422.209 C391.259,422.209 391.259,422.209 391.259,422.209 C391.259,422.209 391.26,422.208 391.26,422.207 C391.261,422.207 391.26,422.206 391.26,422.206 L391.26,422.206" fill="#4A819E"/>
    <path d="M399.412,419.364 L399.33,419.169 L399.153,418.829 L398.99,418.504 L398.835,418.195 L398.695,417.895 L398.579,417.588 L398.479,417.291 L398.403,416.992 L398.327,416.544 L398.297,415.988 L398.368,415.512 L398.459,415.273 L398.514,415.192 L398.525,415.199 L398.477,415.31 L398.552,415.163 L398.633,415.055 L398.683,415.022 L398.74,414.987 L398.816,414.941 L398.918,414.882 L399.05,414.816 L399.211,414.749 L399.523,414.653 L399.99,414.591 L400.487,414.617 L401.009,414.744 L401.25,414.841 L401.219,414.828 L401.37,414.898 L401.628,415.04 L401.857,415.197 L402.066,415.372 L402.256,415.561 L402.423,415.764 L402.567,415.977 L402.689,416.196 L402.83,416.548 L402.93,417.01 L402.93,417.413 L402.888,417.617 L402.861,417.691 L402.861,417.688 L402.908,417.581 L402.845,417.73 L402.781,417.856 L402.735,417.922 L402.674,417.998 L402.585,418.09 L402.464,418.197 L402.307,418.33 L402.115,418.47 L401.748,418.693 L401.172,418.972 L400.522,419.175 L399.796,419.323 L399.412,419.364 L399.412,419.364 C399.411,419.364 399.411,419.364 399.41,419.365 C399.41,419.366 399.41,419.367 399.41,419.367 C399.41,419.367 399.41,419.367 399.41,419.367 L399.647,419.641 L400.181,420.059 L400.788,420.283 L401.432,420.343 L401.936,420.254 L402.295,420.119 L402.661,419.925 L403.03,419.654 L403.394,419.32 L403.744,418.922 L404.064,418.469 L404.317,418.031 L404.393,417.884 L404.393,417.884 C404.41,417.848 404.425,417.812 404.44,417.776 L404.44,417.776 L404.563,417.469 L404.73,416.928 L404.859,416.197 L404.863,415.357 L404.728,414.609 L404.544,414.096 L404.38,413.767 L404.188,413.459 L403.967,413.173 L403.719,412.909 L403.445,412.671 L403.145,412.459 L402.83,412.282 L402.678,412.212 L402.678,412.212 C402.668,412.207 402.657,412.203 402.647,412.198 L402.647,412.198 L402.267,412.062 L401.529,411.919 L400.769,411.924 L400.016,412.081 L399.457,412.296 L399.067,412.505 L398.676,412.767 L398.288,413.085 L397.911,413.466 L397.557,413.905 L397.241,414.39 L397.005,414.846 L396.942,414.997 L396.942,414.997 C396.925,415.033 396.909,415.07 396.894,415.107 L396.894,415.107 L396.781,415.418 L396.641,415.953 L396.563,416.649 L396.629,417.415 L396.834,418.069 L397.083,418.486 L397.293,418.736 L397.529,418.959 L397.802,419.141 L398.098,419.294 L398.427,419.398 L398.793,419.441 L399.189,419.421 L399.41,419.367 C399.41,419.367 399.41,419.367 399.41,419.367 C399.411,419.367 399.411,419.366 399.412,419.366 C399.412,419.365 399.412,419.364 399.412,419.364 L399.412,419.364" fill="#64AFD6"/>
    <path d="M355.519,375.945 L355.353,375.604 L355.013,374.98 L354.708,374.369 L354.432,373.777 L354.192,373.191 L354.004,372.597 L353.854,372.016 L353.755,371.438 L353.703,370.873 L353.691,370.334 L353.726,369.821 L353.798,369.349 L353.908,368.921 L354.043,368.55 L354.2,368.236 L354.37,367.972 L354.417,367.926 L354.326,368.07 L354.509,367.813 L354.756,367.541 L354.983,367.348 L355.25,367.158 L355.566,366.97 L355.928,366.794 L356.335,366.64 L356.778,366.517 L357.251,366.428 L357.748,366.382 L358.26,366.383 L358.783,366.432 L359.311,366.531 L359.838,366.684 L360.357,366.892 L360.866,367.155 L361.102,367.3 L361.077,367.284 L361.343,367.464 L361.806,367.826 L362.211,368.212 L362.569,368.627 L362.881,369.064 L363.144,369.521 L363.358,369.989 L363.523,370.463 L363.637,370.937 L363.704,371.401 L363.725,371.848 L363.702,372.268 L363.641,372.653 L363.551,372.996 L363.436,373.298 L363.298,373.568 L363.261,373.624 L363.35,373.485 L363.179,373.753 L362.944,374.063 L362.713,374.304 L362.431,374.551 L362.093,374.797 L361.702,375.031 L361.26,375.27 L360.771,375.486 L360.241,375.681 L359.676,375.848 L359.084,375.977 L358.466,376.073 L357.832,376.121 L357.183,376.127 L356.524,376.088 L355.854,376.006 L355.519,375.945 L355.519,375.945 C355.518,375.945 355.517,375.946 355.517,375.947 C355.516,375.947 355.516,375.948 355.517,375.949 L355.732,376.221 L356.192,376.711 L356.692,377.121 L357.226,377.456 L357.787,377.714 L358.369,377.904 L358.973,378.01 L359.593,378.042 L360.226,377.99 L360.871,377.85 L361.524,377.625 L362.181,377.289 L362.836,376.86 L363.483,376.331 L364.108,375.695 L364.647,375.029 L364.831,374.772 L364.831,374.772 C364.862,374.726 364.891,374.68 364.92,374.633 L364.92,374.633 L365.209,374.148 L365.63,373.304 L365.951,372.46 L366.175,371.633 L366.308,370.834 L366.362,370.064 L366.343,369.321 L366.256,368.607 L366.105,367.922 L365.894,367.265 L365.625,366.639 L365.298,366.046 L364.916,365.487 L364.478,364.968 L363.988,364.491 L363.456,364.069 L363.189,363.889 L363.189,363.889 C363.181,363.884 363.173,363.879 363.164,363.873 L363.164,363.873 L362.85,363.686 L362.229,363.376 L361.589,363.135 L360.933,362.959 L360.265,362.848 L359.588,362.804 L358.904,362.827 L358.216,362.916 L357.527,363.074 L356.836,363.307 L356.147,363.618 L355.461,364.011 L354.784,364.498 L354.123,365.085 L353.493,365.769 L352.966,366.473 L352.795,366.741 L352.795,366.741 C352.763,366.787 352.733,366.835 352.703,366.884 L352.703,366.884 L352.425,367.381 L352.034,368.23 L351.756,369.061 L351.577,369.859 L351.494,370.616 L351.489,371.335 L351.564,372.011 L351.706,372.65 L351.919,373.245 L352.196,373.797 L352.529,374.311 L352.931,374.766 L353.385,375.177 L353.905,375.518 L354.495,375.771 L355.149,375.931 L355.517,375.949 C355.517,375.949 355.517,375.949 355.517,375.949 C355.517,375.949 355.518,375.949 355.519,375.948 C355.519,375.947 355.519,375.946 355.519,375.945 L355.519,375.945" fill="#4A819E"/>
    <path d="M343.386,377.307 L343.234,377.032 L342.927,376.524 L342.651,376.02 L342.403,375.527 L342.187,375.036 L342.015,374.536 L341.877,374.043 L341.784,373.55 L341.73,373.066 L341.714,372.6 L341.737,372.153 L341.795,371.736 L341.888,371.354 L342.006,371.015 L342.147,370.719 L342.303,370.462 L342.356,370.4 L342.287,370.508 L342.443,370.288 L342.669,370.032 L342.883,369.842 L343.133,369.659 L343.421,369.483 L343.748,369.321 L344.11,369.181 L344.501,369.07 L344.917,368.991 L345.351,368.949 L345.798,368.949 L346.254,368.991 L346.712,369.076 L347.168,369.208 L347.619,369.388 L348.059,369.614 L348.265,369.74 L348.246,369.728 L348.474,369.882 L348.872,370.195 L349.223,370.529 L349.534,370.889 L349.804,371.269 L350.031,371.666 L350.217,372.075 L350.36,372.489 L350.46,372.905 L350.518,373.315 L350.536,373.712 L350.515,374.09 L350.459,374.441 L350.375,374.759 L350.266,375.045 L350.134,375.305 L350.089,375.376 L350.155,375.272 L350.009,375.5 L349.792,375.783 L349.574,376.01 L349.314,376.236 L349.009,376.456 L348.661,376.661 L348.272,376.865 L347.846,377.045 L347.388,377.205 L346.902,377.337 L346.396,377.434 L345.869,377.502 L345.331,377.527 L344.783,377.514 L344.228,377.461 L343.667,377.37 L343.386,377.307 L343.386,377.307 C343.386,377.307 343.385,377.307 343.385,377.308 C343.384,377.309 343.384,377.31 343.385,377.31 L343.575,377.531 L343.979,377.929 L344.415,378.26 L344.877,378.528 L345.36,378.733 L345.859,378.88 L346.375,378.959 L346.901,378.975 L347.437,378.924 L347.98,378.8 L348.527,378.607 L349.075,378.325 L349.618,377.968 L350.152,377.53 L350.665,377.008 L351.11,376.457 L351.266,376.237 L351.266,376.237 C351.289,376.203 351.311,376.168 351.333,376.133 L351.333,376.133 L351.567,375.741 L351.912,375.049 L352.175,374.357 L352.36,373.676 L352.47,373.014 L352.514,372.374 L352.498,371.755 L352.424,371.159 L352.297,370.584 L352.12,370.032 L351.892,369.505 L351.616,369.005 L351.294,368.534 L350.924,368.096 L350.509,367.693 L350.059,367.336 L349.83,367.183 L349.83,367.183 C349.824,367.178 349.818,367.174 349.812,367.171 L349.812,367.171 L349.547,367.012 L349.022,366.75 L348.482,366.546 L347.928,366.397 L347.365,366.303 L346.794,366.265 L346.218,366.283 L345.641,366.357 L345.063,366.488 L344.486,366.682 L343.912,366.939 L343.343,367.264 L342.783,367.665 L342.239,368.145 L341.722,368.704 L341.286,369.283 L341.139,369.511 L341.139,369.511 C341.115,369.546 341.092,369.582 341.07,369.619 L341.07,369.619 L340.844,370.019 L340.522,370.714 L340.291,371.398 L340.14,372.057 L340.067,372.687 L340.06,373.288 L340.118,373.857 L340.232,374.398 L340.406,374.905 L340.633,375.378 L340.909,375.821 L341.241,376.217 L341.618,376.577 L342.049,376.882 L342.539,377.116 L343.081,377.278 L343.385,377.31 C343.385,377.31 343.386,377.31 343.386,377.309 C343.387,377.308 343.387,377.307 343.386,377.307 L343.386,377.307" fill="#64AFD6"/>
    <path d="M575.177,315.05 C575.974,313.945 575.527,314.561 576.52,313.202 C579.714,310.205 583.254,310.04 587.27,310.965 C590.268,312.159 593.451,312.473 596.645,312.438 C589.082,320.939 585.144,319.542 575.367,315.601 L575.177,315.05 z" fill="#88AA7D"/>
  </g>
</svg>
